<svg width="26" height="26" viewBox="0 0 26 26" fill="none" xmlns="http://www.w3.org/2000/svg">
<path d="M4.91791 19.8609L5.01465 19.3021L4.58485 18.9323C2.35398 17.0125 1 14.3743 1 11.4781C1 5.80473 6.25223 1.00104 13 1.00104C19.7468 1.00104 25 5.80478 25 11.4781C25 17.1516 19.7477 21.9562 13 21.9562C12.1161 21.9562 11.2503 21.8764 10.4279 21.7202L10.0981 21.6575L9.79728 21.8066C9.35374 22.0264 7.66705 22.846 5.73288 23.4546C4.7654 23.759 3.76449 24.0014 2.84438 24.0964C2.58518 24.1232 2.33935 24.1375 2.10779 24.1394C2.22056 24.0429 2.33876 23.9404 2.45863 23.8331C3.39131 22.9981 4.5939 21.7321 4.91791 19.8609Z" stroke="#376197" stroke-width="2"/>
</svg>
