<svg width="16" height="26" viewBox="0 0 16 26" fill="none" xmlns="http://www.w3.org/2000/svg">
<path d="M15.8837 0.730523C15.8837 0.539041 15.8076 0.355401 15.6722 0.220003C15.5368 0.0846041 15.3532 0.00853793 15.1617 0.00853793H11.5518C9.73398 -0.0820122 7.95425 0.550592 6.60143 1.76813C5.24861 2.98567 4.43268 4.68916 4.33191 6.5064V10.4051H0.721985C0.530503 10.4051 0.346863 10.4812 0.211465 10.6166C0.0760662 10.752 0 10.9356 0 11.1271V14.8814C0 15.0729 0.0760662 15.2566 0.211465 15.3919C0.346863 15.5273 0.530503 15.6034 0.721985 15.6034H4.33191V25.278C4.33191 25.4695 4.40798 25.6531 4.54337 25.7885C4.67877 25.9239 4.86241 26 5.0539 26H9.38581C9.57729 26 9.76093 25.9239 9.89633 25.7885C10.0317 25.6531 10.1078 25.4695 10.1078 25.278V15.6034H13.891C14.0515 15.6057 14.2083 15.5544 14.3364 15.4577C14.4646 15.3609 14.5568 15.2242 14.5985 15.0691L15.6382 11.3148C15.6669 11.2081 15.6708 11.0963 15.6495 10.9879C15.6282 10.8795 15.5823 10.7774 15.5153 10.6895C15.4484 10.6017 15.3622 10.5303 15.2633 10.481C15.1644 10.4317 15.0556 10.4057 14.9451 10.4051H10.1078V6.5064C10.1437 6.14899 10.3116 5.81779 10.5786 5.57749C10.8456 5.33718 11.1925 5.20503 11.5518 5.20683H15.1617C15.3532 5.20683 15.5368 5.13076 15.6722 4.99537C15.8076 4.85997 15.8837 4.67633 15.8837 4.48485V0.730523Z" fill="white"/>
</svg>
