<svg width="26" height="35" viewBox="0 0 26 35" fill="none" xmlns="http://www.w3.org/2000/svg">
<path d="M13 1C17.8352 1 21.75 4.88348 21.75 9.66875C21.75 11.2765 21.2034 13.1544 20.3153 15.1202C19.4331 17.0727 18.2479 19.0386 17.0482 20.8022C15.8504 22.563 14.6506 24.1039 13.7495 25.2053C13.4667 25.5509 13.2137 25.8528 13 26.1039C12.7863 25.8528 12.5333 25.5509 12.2505 25.2053C11.3494 24.1039 10.1496 22.563 8.95182 20.8022C7.75208 19.0386 6.56689 17.0727 5.68474 15.1202C4.79658 13.1544 4.25 11.2765 4.25 9.66875C4.25 4.88348 8.16479 1 13 1ZM13 5.5C11.8728 5.5 10.7918 5.94777 9.9948 6.7448C9.19777 7.54182 8.75 8.62283 8.75 9.75C8.75 10.8772 9.19777 11.9582 9.9948 12.7552C10.7918 13.5522 11.8728 14 13 14C14.1272 14 15.2082 13.5522 16.0052 12.7552C16.8022 11.9582 17.25 10.8772 17.25 9.75C17.25 8.62283 16.8022 7.54182 16.0052 6.7448C15.2082 5.94777 14.1272 5.5 13 5.5ZM25 27.625C25 28.838 23.9918 30.2045 21.7462 31.3273C19.5602 32.4203 16.4698 33.125 13 33.125C9.53021 33.125 6.43975 32.4203 4.25378 31.3273C2.00825 30.2045 1 28.838 1 27.625C1 26.9143 1.33215 26.1636 2.08145 25.416C2.47471 25.0237 2.97089 24.6458 3.56144 24.2946C3.47491 24.3691 3.39188 24.4453 3.31256 24.5233C2.69587 25.1298 2.25 25.9035 2.25 26.8125C2.25 27.7221 2.69744 28.4977 3.31565 29.1061C3.93045 29.7111 4.76864 30.2101 5.72343 30.6078C7.63741 31.4051 10.2114 31.875 13 31.875C15.7886 31.875 18.3626 31.4051 20.2766 30.6078C21.2314 30.2101 22.0695 29.7111 22.6844 29.1061C23.3026 28.4977 23.75 27.7221 23.75 26.8125C23.75 25.9035 23.3041 25.1298 22.6874 24.5233C22.6081 24.4453 22.5251 24.3691 22.4386 24.2946C23.0291 24.6458 23.5253 25.0237 23.9186 25.416C24.6678 26.1636 25 26.9143 25 27.625Z" stroke="#376197" stroke-width="2"/>
</svg>
