<svg width="461px" height="460px" viewBox="0 0 461 460" version="1.1" xmlns="http://www.w3.org/2000/svg" xmlns:xlink="http://www.w3.org/1999/xlink">
    <g id="Page-1" stroke="none" stroke-width="1" fill="none" fill-rule="evenodd">
        <path d="M50.5551191,373.659658 L137.041567,350.485684 L325.061427,162.465824 L325.164063,265.936523 L325.164062,358.094734 C326.292304,366.922918 333.833441,373.746582 342.968331,373.746582 C348.060631,373.746582 352.657661,371.626078 355.925703,368.221028 L368.651744,355.491225 L457.062887,267.080082 C439.332863,376.439851 344.467571,459.936523 230.100586,459.936523 C157.46375,459.936523 92.6934726,426.25578 50.5551236,373.659664 Z M50.4278472,373.500657 C18.9725706,334.167893 0.1640625,284.280428 0.1640625,230 C0.1640625,103.009565 103.110151,0.0634765625 230.100586,0.0634765625 C357.091021,0.0634765625 460.037109,103.009565 460.037109,230 C460.037109,242.330976 459.066459,254.435245 457.197397,266.240569 L370.759891,289.401428 L367.673192,292.513969 L367.664835,247.936523 L367.668343,143.946533 C367.675016,125.100893 367.678353,115.599225 367.678353,115.441528 C367.678353,101.907788 356.707089,90.9365234 343.173348,90.9365234 C335.960776,90.9365234 329.475992,94.052551 324.981971,98.9465332 L50.4278472,373.500657 Z" id="Combined-Shape" fill="#C32500"></path>
    </g>
</svg>
