<svg width="33" height="33" viewBox="0 0 33 33" fill="none" xmlns="http://www.w3.org/2000/svg">
<path d="M23.0465 21.0875C25.5831 21.7243 28.2378 21.7004 30.7582 21.0218C29.7961 23.8444 28.0107 26.3186 25.6274 28.1219C23.427 29.7779 20.8089 30.7879 18.0667 31.0385C15.3239 31.2892 12.5655 30.7703 10.101 29.5401C7.63663 28.3098 5.56376 26.4168 4.11512 24.0736C2.66648 21.7304 1.89943 19.0297 1.90011 16.2746L1.90009 16.2697C1.8902 13.0568 2.93444 9.9294 4.87256 7.36733L4.87274 7.36709C6.67878 4.97866 9.15788 3.1905 11.986 2.22923C11.3041 4.75394 11.279 7.41395 11.9168 9.95538C12.5915 12.6443 13.983 15.0998 15.943 17.0603C17.9029 19.0207 20.358 20.4125 23.0465 21.0875Z" stroke="white" stroke-width="3"/>
</svg>
