<svg width="30" height="26" viewBox="0 0 30 26" fill="none" xmlns="http://www.w3.org/2000/svg">
<path d="M13.5832 6.92151L14.5985 2.14107C14.7478 1.43978 15.1695 0.826483 15.7708 0.436051C16.3722 0.0456196 17.104 -0.0899734 17.8053 0.0590914L22.1261 0.978406C22.5242 0.535852 23.0572 0.237025 23.6424 0.128274C24.2276 0.0195231 24.8324 0.106928 25.3629 0.37693C25.8933 0.646933 26.3199 1.08444 26.5764 1.6216C26.8329 2.15875 26.9049 2.76553 26.7814 3.34781C26.6578 3.9301 26.3456 4.45534 25.8931 4.84207C25.4406 5.22881 24.8731 5.45542 24.2787 5.48675C23.6843 5.51809 23.0962 5.35239 22.6055 5.01538C22.1149 4.67836 21.7491 4.18886 21.5651 3.62279L17.2429 2.70347L16.3425 6.94179C18.7557 7.127 21.1527 7.9287 23.3239 9.24007C23.9692 8.88102 24.6957 8.69354 25.4341 8.69557C26.1725 8.6976 26.8981 8.88907 27.5413 9.25166C28.1846 9.61425 28.724 10.1358 29.1081 10.7665C29.4921 11.3972 29.7079 12.1159 29.7348 12.8538V12.8822C29.745 13.5434 29.6032 14.1982 29.3203 14.7959C29.0374 15.3936 28.6209 15.9184 28.103 16.3296C28.1006 16.3851 28.097 16.4406 28.0922 16.4959C28.0922 21.9009 22.0761 26 14.8446 26C7.63473 26 1.72002 21.9118 1.72407 16.6C1.71818 16.5185 1.71367 16.4369 1.71056 16.3553C0.842468 15.6979 0.254928 14.7366 0.0656932 13.6642C-0.123542 12.5919 0.0995108 11.4876 0.690146 10.5727C1.28078 9.65789 2.19536 9.00006 3.25057 8.7311C4.30578 8.46215 5.42365 8.60194 6.38014 9.12246C8.56365 7.80654 11.0371 7.05049 13.5832 6.92151ZM26.1373 14.3923C26.4078 14.2584 26.6351 14.0511 26.7934 13.7941C26.9517 13.5371 27.0344 13.2408 27.0323 12.939C27.0182 12.6296 26.9153 12.3309 26.7359 12.0785C26.5565 11.8261 26.3082 11.6308 26.0207 11.5158C25.7332 11.4009 25.4186 11.3712 25.1147 11.4303C24.8107 11.4895 24.5302 11.6349 24.3068 11.8493L23.5159 12.6064L22.6101 11.9913C20.4267 10.5068 17.9432 9.65917 15.5395 9.60645H14.1794C11.6446 9.6443 9.24218 10.4176 7.09936 11.8709L6.20168 12.4793L5.4135 11.7357C5.24321 11.5763 5.04031 11.4556 4.81884 11.3823C4.59736 11.3089 4.36259 11.2844 4.13076 11.3107C3.89892 11.3369 3.67554 11.4132 3.47606 11.5342C3.27658 11.6552 3.10576 11.8181 2.9754 12.0116C2.84504 12.2051 2.75826 12.4246 2.72104 12.6549C2.68383 12.8853 2.69708 13.1209 2.75986 13.3456C2.82265 13.5703 2.93349 13.7787 3.08471 13.9564C3.23593 14.1341 3.42393 14.2768 3.63571 14.3747L4.49148 14.7668L4.41983 15.7064C4.4017 15.9693 4.40305 16.2332 4.42389 16.4959C4.42389 20.1596 8.96098 23.2961 14.8446 23.2961C20.7539 23.2961 25.3883 20.138 25.3924 16.3918C25.4099 16.1637 25.4099 15.9345 25.3924 15.7064L25.3221 14.7979L26.1373 14.3923ZM8.03761 14.6073C8.03761 14.0694 8.25126 13.5536 8.63157 13.1733C9.01187 12.793 9.52767 12.5794 10.0655 12.5794C10.6033 12.5794 11.1191 12.793 11.4995 13.1733C11.8798 13.5536 12.0934 14.0694 12.0934 14.6073C12.0934 15.1451 11.8798 15.6609 11.4995 16.0412C11.1191 16.4215 10.6033 16.6352 10.0655 16.6352C9.52767 16.6352 9.01187 16.4215 8.63157 16.0412C8.25126 15.6609 8.03761 15.1451 8.03761 14.6073ZM17.5011 14.6073C17.5011 14.0694 17.7148 13.5536 18.0951 13.1733C18.4754 12.793 18.9912 12.5794 19.529 12.5794C20.0669 12.5794 20.5827 12.793 20.963 13.1733C21.3433 13.5536 21.5569 14.0694 21.5569 14.6073C21.5569 15.1451 21.3433 15.6609 20.963 16.0412C20.5827 16.4215 20.0669 16.6352 19.529 16.6352C18.9912 16.6352 18.4754 16.4215 18.0951 16.0412C17.7148 15.6609 17.5011 15.1451 17.5011 14.6073ZM14.8176 21.5062C12.9289 21.5062 11.0781 21.006 9.5707 19.8703C9.47964 19.7604 9.43288 19.6204 9.43956 19.4778C9.44624 19.3353 9.50588 19.2003 9.60682 19.0993C9.70776 18.9984 9.84273 18.9388 9.98532 18.9321C10.1279 18.9254 10.2679 18.9722 10.3778 19.0632C11.6554 20.0001 13.248 20.4016 14.7973 20.4016C16.3466 20.4016 17.9473 20.0299 19.237 19.1051C19.3116 19.0324 19.404 18.9805 19.505 18.9548C19.606 18.9291 19.7119 18.9304 19.8122 18.9587C19.9125 18.9869 20.0036 19.041 20.0764 19.1156C20.1491 19.1902 20.201 19.2827 20.2266 19.3836C20.2484 19.485 20.245 19.5901 20.2167 19.6898C20.1884 19.7895 20.1361 19.8807 20.0644 19.9555C19.141 21.033 16.7076 21.5062 14.8189 21.5062" fill="white"/>
</svg>
