<svg width="37" height="37" viewBox="0 0 37 37" fill="none" xmlns="http://www.w3.org/2000/svg">
<path d="M16.6194 4.35484V1.98064C16.6194 1.50839 16.807 1.05547 17.1409 0.721536C17.4748 0.3876 17.9277 0.199997 18.4 0.199997C18.8723 0.199997 19.3252 0.3876 19.6591 0.721536C19.993 1.05547 20.1806 1.50839 20.1806 1.98064V4.35484C20.1806 4.82709 19.993 5.28001 19.6591 5.61394C19.3252 5.94788 18.8723 6.13548 18.4 6.13548C17.9277 6.13548 17.4748 5.94788 17.1409 5.61394C16.807 5.28001 16.6194 4.82709 16.6194 4.35484ZM28.4903 18.6C28.4903 20.5957 27.8985 22.5465 26.7898 24.2059C25.6811 25.8652 24.1052 27.1585 22.2614 27.9222C20.4176 28.686 18.3888 28.8858 16.4315 28.4964C14.4741 28.1071 12.6762 27.1461 11.2651 25.7349C9.85391 24.3238 8.8929 22.5259 8.50356 20.5685C8.11422 18.6112 8.31404 16.5824 9.07776 14.7386C9.84147 12.8948 11.1348 11.3189 12.7941 10.2102C14.4535 9.10146 16.4043 8.50967 18.4 8.50967C21.0753 8.51242 23.6402 9.57639 25.5319 11.4681C27.4236 13.3598 28.4876 15.9247 28.4903 18.6ZM24.929 18.6C24.929 17.3087 24.5461 16.0464 23.8287 14.9727C23.1113 13.899 22.0916 13.0621 20.8986 12.568C19.7055 12.0738 18.3928 11.9445 17.1262 12.1964C15.8597 12.4483 14.6964 13.0702 13.7833 13.9833C12.8702 14.8964 12.2483 16.0597 11.9964 17.3262C11.7445 18.5928 11.8738 19.9055 12.368 21.0985C12.8621 22.2916 13.699 23.3113 14.7727 24.0287C15.8464 24.7461 17.1087 25.129 18.4 25.129C20.131 25.1271 21.7905 24.4386 23.0146 23.2146C24.2386 21.9905 24.9271 20.331 24.929 18.6ZM7.04987 9.76948C7.21551 9.93512 7.41214 10.0665 7.62856 10.1561C7.84497 10.2458 8.07692 10.2919 8.31116 10.2919C8.5454 10.2919 8.77735 10.2458 8.99377 10.1561C9.21018 10.0665 9.40682 9.93512 9.57245 9.76948C9.73809 9.60385 9.86947 9.40721 9.95912 9.1908C10.0488 8.97438 10.0949 8.74243 10.0949 8.50819C10.0949 8.27395 10.0488 8.042 9.95912 7.82558C9.86947 7.60917 9.73809 7.41254 9.57245 7.2469L7.79181 5.46625C7.45729 5.13174 7.00359 4.94381 6.53052 4.94381C6.05744 4.94381 5.60374 5.13174 5.26923 5.46625C4.93471 5.80077 4.74678 6.25447 4.74678 6.72755C4.74678 7.20062 4.93471 7.65432 5.26923 7.98884L7.04987 9.76948ZM7.04987 27.4275L5.26923 29.2082C5.10359 29.3738 4.9722 29.5705 4.88256 29.7869C4.79292 30.0033 4.74678 30.2352 4.74678 30.4695C4.74678 30.7037 4.79292 30.9357 4.88256 31.1521C4.9722 31.3685 5.10359 31.5651 5.26923 31.7308C5.60374 32.0653 6.05744 32.2532 6.53052 32.2532C6.76476 32.2532 6.99671 32.2071 7.21312 32.1174C7.42953 32.0278 7.62617 31.8964 7.79181 31.7308L9.57245 29.9501C9.90697 29.6156 10.0949 29.1619 10.0949 28.6888C10.0949 28.2158 9.90697 27.7621 9.57245 27.4275C9.23794 27.093 8.78424 26.9051 8.31116 26.9051C7.83809 26.9051 7.38439 27.093 7.04987 27.4275ZM28.4903 10.2903C28.7242 10.2905 28.9559 10.2446 29.172 10.1552C29.3882 10.0659 29.5846 9.93479 29.7501 9.76948L31.5308 7.98884C31.6964 7.8232 31.8278 7.62656 31.9174 7.41015C32.0071 7.19374 32.0532 6.96179 32.0532 6.72755C32.0532 6.4933 32.0071 6.26135 31.9174 6.04494C31.8278 5.82853 31.6964 5.63189 31.5308 5.46625C31.3651 5.30062 31.1685 5.16923 30.9521 5.07959C30.7357 4.98995 30.5037 4.94381 30.2695 4.94381C30.0352 4.94381 29.8033 4.98995 29.5869 5.07959C29.3705 5.16923 29.1738 5.30062 29.0082 5.46625L27.2275 7.2469C26.977 7.49595 26.8063 7.81389 26.7369 8.16027C26.6676 8.50665 26.7029 8.86583 26.8383 9.1921C26.9736 9.51838 27.203 9.79702 27.4972 9.99258C27.7914 10.1881 28.1371 10.2918 28.4903 10.2903ZM29.7501 27.4305C29.4156 27.096 28.9619 26.9081 28.4888 26.9081C28.0158 26.9081 27.5621 27.096 27.2275 27.4305C26.893 27.765 26.7051 28.2187 26.7051 28.6918C26.7051 29.1649 26.893 29.6186 27.2275 29.9531L29.0082 31.7337C29.3427 32.0683 29.7964 32.2562 30.2695 32.2562C30.7426 32.2562 31.1963 32.0683 31.5308 31.7337C31.8653 31.3992 32.0532 30.9455 32.0532 30.4724C32.0532 29.9994 31.8653 29.5457 31.5308 29.2112L29.7501 27.4305ZM5.93548 18.6C5.93548 18.1277 5.74788 17.6748 5.41394 17.3409C5.08001 17.007 4.62709 16.8194 4.15484 16.8194H1.78065C1.30839 16.8194 0.855475 17.007 0.521539 17.3409C0.187603 17.6748 0 18.1277 0 18.6C0 19.0723 0.187603 19.5252 0.521539 19.8591C0.855475 20.193 1.30839 20.3806 1.78065 20.3806H4.15484C4.62709 20.3806 5.08001 20.193 5.41394 19.8591C5.74788 19.5252 5.93548 19.0723 5.93548 18.6ZM18.4 31.0645C17.9277 31.0645 17.4748 31.2521 17.1409 31.5861C16.807 31.92 16.6194 32.3729 16.6194 32.8452V35.2194C16.6194 35.6916 16.807 36.1445 17.1409 36.4785C17.4748 36.8124 17.9277 37 18.4 37C18.8723 37 19.3252 36.8124 19.6591 36.4785C19.993 36.1445 20.1806 35.6916 20.1806 35.2194V32.8452C20.1806 32.3729 19.993 31.92 19.6591 31.5861C19.3252 31.2521 18.8723 31.0645 18.4 31.0645ZM35.0194 16.8194H32.6452C32.1729 16.8194 31.72 17.007 31.3861 17.3409C31.0521 17.6748 30.8645 18.1277 30.8645 18.6C30.8645 19.0723 31.0521 19.5252 31.3861 19.8591C31.72 20.193 32.1729 20.3806 32.6452 20.3806H35.0194C35.4916 20.3806 35.9445 20.193 36.2785 19.8591C36.6124 19.5252 36.8 19.0723 36.8 18.6C36.8 18.1277 36.6124 17.6748 36.2785 17.3409C35.9445 17.007 35.4916 16.8194 35.0194 16.8194Z" fill="#FF7A00"/>
</svg>
